<svg width="200" height="200" viewBox="0 0 200 200" fill="none" xmlns="http://www.w3.org/2000/svg">
  <g clip-path="url(#clip0_510_20)">
    <path d="M100 0C126.522 0 151.957 10.5357 170.711 29.2893C189.464 48.043 200 73.4783 200 100C200 126.522 189.464 151.957 170.711 170.711C151.957 189.464 126.522 200 100 200C73.4783 200 48.043 189.464 29.2893 170.711C10.5357 151.957 0 126.522 0 100C0 73.4783 10.5357 48.043 29.2893 29.2893C48.043 10.5357 73.4783 0 100 0Z" fill="url(#paint0_linear_510_20)"/>
    <path d="M85.55 97.27H74.17C73.4759 93.715 71.4825 90.546 68.5787 88.381C65.6748 86.2161 62.0686 85.2103 58.4635 85.56C54.8583 85.9096 51.5126 87.5896 49.0789 90.2723C46.6452 92.9549 45.298 96.4479 45.3 100.07C45.2977 100.234 45.2334 100.391 45.12 100.51C45.0621 100.567 44.9934 100.613 44.9179 100.644C44.8424 100.675 44.7615 100.69 44.68 100.69C44.5982 100.692 44.5168 100.677 44.441 100.646C44.3653 100.615 44.2968 100.569 44.24 100.51C44.1802 100.453 44.1326 100.385 44.0999 100.309C44.0673 100.234 44.0503 100.152 44.05 100.07C44.0314 83.1083 50.7468 66.8328 62.7209 54.8194C74.6949 42.8059 90.9482 36.0371 107.91 36H108.09C118.603 36.0318 128.673 40.2329 136.092 47.6814C143.51 55.13 147.671 65.2174 147.66 75.73C147.66 82.3604 145.026 88.7193 140.338 93.4077C135.649 98.0961 129.29 100.73 122.66 100.73C118.689 100.729 114.755 101.489 111.07 102.97L110.23 102.33C109.581 101.799 109.055 101.133 108.689 100.378C108.323 99.6239 108.125 98.7986 108.11 97.96C108.087 97.2196 108.309 96.4923 108.74 95.89L110.16 94.05C112.142 93.7161 114.149 93.5488 116.16 93.55C119.049 93.5559 121.911 92.9927 124.582 91.8926C127.254 90.7924 129.682 89.1769 131.729 87.1382C133.777 85.0995 135.402 82.6775 136.513 80.0106C137.624 77.3437 138.199 74.4841 138.205 71.595C138.211 68.7059 137.648 65.844 136.548 63.1725C135.447 60.5011 133.832 58.0725 131.793 56.0255C129.754 53.9784 127.332 52.3529 124.666 51.2419C121.999 50.1308 119.139 49.5559 116.25 49.55C102.83 49.55 90.48 61.47 88.72 76.12L85.55 97.27Z" fill="white"/>
    <path d="M155.09 116C155.145 122.47 153.918 128.887 151.48 134.88C149.224 140.359 145.861 145.312 141.6 149.43C133.19 157.51 121.66 162 109.14 162H109.01C102.596 161.981 96.3747 159.806 91.3456 155.825C86.3164 151.844 82.7714 146.288 81.28 140.05L81.97 135.35L82.53 131.5V131.37L83.42 125.31C84.5821 120.757 86.9282 116.593 90.22 113.24C94.279 109.145 99.6339 106.586 105.37 106C101.122 108.836 97.6392 112.676 95.2303 117.18C92.8214 121.684 91.5607 126.712 91.56 131.82C91.5387 138.111 94.0097 144.154 98.4324 148.627C102.855 153.1 108.87 155.64 115.16 155.69C136.5 155.69 153.84 137.87 153.84 116C153.852 115.84 153.924 115.69 154.04 115.579C154.156 115.468 154.309 115.404 154.47 115.4C154.631 115.404 154.784 115.468 154.9 115.58C154.959 115.633 155.007 115.698 155.039 115.77C155.072 115.842 155.089 115.921 155.09 116Z" fill="white"/>
    <path d="M109 103.85H108C104.428 103.834 100.888 104.533 97.5906 105.907C94.2929 107.281 91.304 109.302 88.8 111.85C85.24 115.479 82.71 119.99 81.47 124.92C81.0698 126.903 80.7727 128.906 80.58 130.92V131.04V131.17L80.49 131.81L80.01 135.02L76.07 162H65.34L74.34 100.39C74.3981 100.01 74.4215 99.6247 74.41 99.24H85.26L85.11 100.24L83.35 112.24L82.73 116.52C83.3493 114.88 84.0914 113.289 84.95 111.76C85.15 111.39 85.36 111.03 85.59 110.67C85.97 110.05 86.38 109.43 86.81 108.81C88.1494 106.904 89.6589 105.123 91.32 103.49L92.32 102.55L92.88 102.05C96.9284 98.5606 101.715 96.0339 106.88 94.66L107.09 94.6C106.406 95.554 106.054 96.7066 106.09 97.88C106.102 99.0287 106.369 100.16 106.872 101.193C107.375 102.226 108.102 103.133 109 103.85Z" fill="white"/>
  </g>
  <defs>
    <linearGradient id="paint0_linear_510_20" x1="200" y1="0" x2="1.52588e-05" y2="200" gradientUnits="userSpaceOnUse">
      <stop stop-color="#2A030A"/>
      <stop offset="1" stop-color="#100129"/>
    </linearGradient>
    <clipPath id="clip0_510_20">
      <rect width="200" height="200" fill="white"/>
    </clipPath>
  </defs>
</svg>