<?xml version="1.0" standalone="no"?>
<!DOCTYPE svg PUBLIC "-//W3C//DTD SVG 20010904//EN"
 "http://www.w3.org/TR/2001/REC-SVG-20010904/DTD/svg10.dtd">
<svg version="1.0" xmlns="http://www.w3.org/2000/svg"
 width="700.000000pt" height="700.000000pt" viewBox="0 0 700.000000 700.000000"
 preserveAspectRatio="xMidYMid meet">
<metadata>
Created by potrace 1.14, written by Peter Selinger 2001-2017
</metadata>
<g transform="translate(0.000000,700.000000) scale(0.100000,-0.100000)"
fill="#000000" stroke="none">
<path d="M3235 6989 c-1002 -77 -1931 -587 -2535 -1394 -492 -657 -742 -1484
-692 -2288 31 -501 145 -928 363 -1367 178 -358 369 -622 658 -911 296 -296
581 -498 956 -680 801 -387 1717 -453 2575 -184 316 100 704 293 973 487 305
220 606 523 824 830 450 634 683 1443 635 2210 -31 502 -145 929 -363 1368
-178 358 -369 622 -658 911 -293 293 -551 479 -911 658 -572 285 -1197 408
-1825 360z m745 -1264 c455 -69 856 -363 1050 -771 95 -198 134 -371 134 -594
0 -140 -3 -164 -27 -243 -74 -242 -219 -424 -429 -536 -140 -76 -221 -96 -454
-111 -107 -7 -174 -17 -239 -35 -145 -42 -137 -42 -178 5 -49 57 -67 132 -43
181 38 79 54 89 152 99 49 5 118 10 154 10 166 1 357 81 490 207 375 352 308
955 -134 1222 -31 18 -95 47 -143 64 -76 26 -106 31 -213 35 -144 4 -224 -9
-346 -58 -159 -63 -322 -190 -434 -338 -66 -87 -154 -265 -181 -367 -11 -44
-48 -264 -82 -490 l-62 -410 -198 0 -198 0 -23 65 c-73 211 -259 344 -481 344
-257 0 -481 -202 -503 -452 -5 -65 -21 -87 -45 -63 -8 8 -8 51 1 169 35 460
198 878 479 1236 72 91 268 287 358 358 401 314 875 483 1370 487 72 0 173 -6
225 -14z m-247 -2067 c-35 -70 -10 -196 51 -260 14 -15 26 -30 26 -33 0 -3
-31 -5 -68 -5 -321 0 -642 -204 -800 -508 -71 -136 -97 -228 -122 -437 -6 -49
-43 -313 -83 -585 l-73 -495 -187 -3 c-173 -2 -187 -1 -187 15 0 10 72 504
158 1098 l158 1080 187 3 c182 2 187 2 187 -18 0 -17 -59 -437 -76 -535 -3
-20 6 -8 26 34 52 111 158 259 254 355 134 135 298 237 483 301 87 30 84 31
66 -7z m-78 -391 c-225 -167 -378 -411 -431 -685 -21 -110 -18 -289 6 -391 74
-307 301 -534 620 -618 45 -12 104 -17 195 -17 452 0 867 236 1127 640 113
176 192 426 206 653 6 97 9 106 27 106 27 0 30 -46 15 -190 -27 -261 -115
-526 -238 -719 -182 -285 -466 -507 -792 -621 -235 -81 -543 -115 -738 -81
-366 64 -672 329 -786 678 l-23 73 38 260 c41 282 53 334 106 440 52 103 112
182 201 266 86 81 157 127 254 167 66 27 188 60 223 61 17 0 15 -3 -10 -22z"/>
</g>
</svg>
